<?xml version="1.0" encoding="UTF-8"?>
<svg width="41" height="35" viewBox="0 0 41 35" fill="none" xmlns="http://www.w3.org/2000/svg">
<path d="M5.36157 4.16937H35.7671V31.3478H5.36157V4.16937Z" fill="#AA572A"/>
<path d="M1.71293 0.907959H7.79403C8.11659 0.907959 8.42594 1.0225 8.65403 1.22637C8.88211 1.43025 9.01025 1.70677 9.01025 1.9951V34.6092H1.71293C1.39036 34.6092 1.08101 34.4947 0.852927 34.2908C0.624841 34.0869 0.496704 33.8104 0.496704 33.5221V1.9951C0.496704 1.70677 0.624841 1.43025 0.852927 1.22637C1.08101 1.0225 1.39036 0.907959 1.71293 0.907959V0.907959ZM33.3347 0.907959H39.4158C39.7383 0.907959 40.0477 1.0225 40.2758 1.22637C40.5039 1.43025 40.632 1.70677 40.632 1.9951V33.5221C40.632 33.8104 40.5039 34.0869 40.2758 34.2908C40.0477 34.4947 39.7383 34.6092 39.4158 34.6092H32.1185V1.9951C32.1185 1.70677 32.2466 1.43025 32.4747 1.22637C32.7028 1.0225 33.0121 0.907959 33.3347 0.907959V0.907959Z" fill="#E5AE7C"/>
<path d="M5.36157 30.2607H35.7671V34.6093H5.36157V30.2607ZM5.36157 16.1279H35.7671V22.6508H5.36157V16.1279Z" fill="#E5AE7C"/>
<path d="M16.3074 12.8665H24.821C25.4661 12.8665 26.0848 13.0956 26.541 13.5033C26.9972 13.9111 27.2534 14.4641 27.2534 15.0408V23.7379C27.2534 24.3145 26.9972 24.8676 26.541 25.2753C26.0848 25.6831 25.4661 25.9122 24.821 25.9122H16.3074C15.6623 25.9122 15.0436 25.6831 14.5874 25.2753C14.1313 24.8676 13.875 24.3145 13.875 23.7379V15.0408C13.875 14.4641 14.1313 13.9111 14.5874 13.5033C15.0436 13.0956 15.6623 12.8665 16.3074 12.8665Z" fill="#E5AE7C"/>
<path d="M18.74 19.9112H22.3886L23.1646 22.354C23.2159 22.5157 23.2246 22.6859 23.19 22.8511C23.1553 23.0163 23.0783 23.1721 22.9649 23.3062C22.8515 23.4403 22.7049 23.5491 22.5365 23.624C22.3682 23.6989 22.1827 23.7379 21.9946 23.7379H19.134C18.946 23.7379 18.7605 23.6989 18.5921 23.624C18.4238 23.5491 18.2771 23.4403 18.1637 23.3062C18.0504 23.1721 17.9733 23.0163 17.9387 22.8511C17.904 22.6859 17.9127 22.5157 17.964 22.354L18.74 19.9112Z" fill="#C07F41"/>
<path d="M20.5642 15.0408C21.3706 15.0408 22.144 15.3271 22.7142 15.8368C23.2845 16.3465 23.6048 17.0378 23.6048 17.7586C23.6048 18.4794 23.2845 19.1707 22.7142 19.6804C22.144 20.1901 21.3706 20.4765 20.5642 20.4765C19.7578 20.4765 18.9845 20.1901 18.4142 19.6804C17.844 19.1707 17.5237 18.4794 17.5237 17.7586C17.5237 17.0378 17.844 16.3465 18.4142 15.8368C18.9845 15.3271 19.7578 15.0408 20.5642 15.0408Z" fill="#C07F41"/>
</svg> 