<?xml version="1.0" encoding="UTF-8"?>
<svg width="27" height="20" viewBox="0 0 27 20" fill="none" xmlns="http://www.w3.org/2000/svg">
<path d="M6.14768 6.25514C4.14513 6.25514 2.30481 2.10694 0.329451 3.29219C-1.31659 4.27984 3.72936 19.4239 3.95085 19.7531C4.17233 20.0823 22.1656 20.0823 22.3871 19.7531C22.6085 19.4239 28.2053 4.60906 26.23 3.29219C24.2547 1.97531 22.7163 6.25514 20.741 6.25514C18.7657 6.25514 16.5749 0 13.3905 0C10.206 0 8.34448 6.25514 6.14768 6.25514Z" fill="#FFC800"/>
<path d="M13.03 18.4872C13.3091 18.3034 13.5444 3.90903 11.4613 3.90906C10.4197 3.90907 8.68374 7.33828 7.12775 7.72719C6.06261 7.99341 5.53309 6.44931 4.35027 6.68584C3.16746 6.92236 6.43333 18.2739 6.78054 18.4872C7.12775 18.7005 12.7509 18.671 13.03 18.4872Z" fill="#FFD333"/>
</svg> 