<svg width="569" height="522" viewBox="0 0 569 522" fill="none" xmlns="http://www.w3.org/2000/svg">
<path d="M138.242 386.009C144.573 378.603 155.539 377.632 162.852 384.022L183.838 401.994C191.15 408.387 192.096 419.475 185.765 426.881C179.433 434.286 168.467 435.257 161.155 428.864L140.17 410.893C132.857 404.502 131.91 393.414 138.242 386.009Z" fill="#F49000"/>
<path d="M442.009 373.435C435.229 366.765 424.119 366.792 417.51 373.658L397.951 393.443C391.345 400.31 391.356 411.548 398.136 418.218C404.916 424.889 416.029 424.862 422.635 417.995L442.198 398.211C448.803 391.344 448.792 380.106 442.009 373.435Z" fill="#F49000"/>
<path d="M504.06 180.798C504.451 169.689 494.043 161.854 483.771 164.847L417.084 184.781L414.864 126.996C414.65 120.636 413.369 114.832 410.75 109.048C399.744 86.1913 372.574 76.5695 350.085 87.3246C316.554 103.522 292.966 112.127 279.983 112.453C266.871 113.186 242.285 106.641 206.627 92.9458C201.108 90.7249 195.205 89.7279 188.786 90.3636C163.626 91.2738 144.487 112.541 145.35 137.984L147.844 196.305L79.1054 181.876C68.636 179.863 58.7096 188.809 60.188 199.62C65.6745 251.262 103.313 293.904 154.742 305.473C169.335 367.68 225.794 429.594 291.5 426.87C357.204 424.149 409.675 357.661 419.029 294.155C468.9 278.26 502.322 232.818 504.06 180.798Z" fill="#20221E"/>
<path d="M401.772 212.22L400.547 179.471C399.477 158.905 386.67 141.761 369.034 134.302C368.175 129.981 366.509 125.402 364.183 121.51C363.084 119.359 359.197 119.01 357.086 121.478L349.305 130.664L348.902 130.534C348.686 124.174 347.26 117.425 343.303 111.66C342.332 109.102 338.316 109.161 336.206 111.629L300.347 154.941C288.807 163.369 272.211 163.883 260.058 155.937L220.988 116.43C219.083 114.021 216.277 114.468 214.441 117.474C211.173 123.615 210.325 130.533 210.816 137.431L210.412 137.302L201.323 128.092C199.014 125.553 195.273 126.15 193.84 129.285C191.49 133.923 190.35 138.949 190.017 144.235C174.607 153.668 164.382 170.607 165.305 190.227L166.531 222.976C167.833 251.256 191.273 272.712 219.11 271.763L223.126 271.704C243.866 270.723 260.965 257.339 268.092 238.956C284.285 238.312 295.526 237.877 302.751 237.5C311.542 254.703 329.634 266.353 349.842 265.651L353.455 265.463C381.42 264.105 402.67 240.37 401.772 212.22Z" fill="#C4C4C4"/>
<path d="M285.567 210.394C295.873 210.703 304.333 219.47 304.406 230.043L304.076 262.009C303.754 272.429 295.07 280.998 284.613 281.089C274.307 280.78 265.847 272.013 265.775 261.44L266.104 229.474C266.578 218.654 275.262 210.085 285.567 210.394Z" fill="#F49000"/>
<path d="M285.514 217.709C293.69 217.656 300.082 224.707 300.121 232.975L299.72 254.368C299.76 262.636 292.775 269.11 284.598 269.164C276.421 269.217 270.03 262.166 269.99 253.898L270.392 232.505C270.748 224.39 277.336 217.763 285.514 217.709Z" fill="#B66E28"/>
<path d="M259.138 226.328C261.556 213.966 272.672 204.96 286.746 204.89C298.936 205.009 310.163 214.844 311.909 226.979L311.85 228.332L285.257 232.741L259.079 227.681L259.138 226.328Z" fill="#FFC200"/>
<path d="M385.328 203.796L384.569 186.476C383.903 166.04 366.42 149.642 346.083 150.752C325.746 151.862 309.634 169.158 310.703 189.724L311.661 212.051C311.876 218.412 313.963 224.474 316.71 229.85C341.859 217.702 364.915 209.376 385.328 203.796Z" fill="white"/>
<path d="M251.006 232.572C253.613 227.118 255.139 220.867 254.52 214.377L253.562 192.05C252.897 171.614 235.413 155.216 215.076 156.326C194.739 157.436 178.628 174.733 179.696 195.298L180.584 212.21C201.248 215.699 225.431 222.114 251.006 232.572Z" fill="white"/>
<path d="M205.556 217.531C214.962 220.101 225.174 222.93 235.532 226.705C238.835 223.272 240.653 218.912 240.455 213.906L239.807 194.824C239.41 184.81 231.144 177.213 221.645 177.758C218.968 177.797 216.565 178.374 214.438 179.489C216.875 181.619 218.249 184.307 218.43 187.96C218.646 194.321 213.893 199.536 207.603 199.763C206.667 199.912 205.861 199.653 205.054 199.394L205.392 215.231C205.538 216.177 205.813 216.714 205.556 217.531Z" fill="#122431"/>
<path d="M331.22 223.273C341.07 218.796 350.663 215.135 359.724 211.753C359.981 210.937 359.964 209.583 359.818 208.637L359.17 189.555C358.773 179.541 350.507 171.945 341.008 172.49C337.799 172.808 334.864 173.663 332.608 175.186C334.642 177.187 336.015 179.875 335.922 182.99C336.138 189.351 331.385 194.566 325.095 194.793C324.692 194.664 324.692 194.664 324.288 194.534L324.755 209.963C324.825 215.378 327.298 220.216 331.22 223.273Z" fill="#122431"/>
<path d="M85 259.5C58.0855 224.251 80.0001 177.5 80.0001 177.5C83.0001 178.167 140.7 189.9 147.5 191.5C224 421.5 422.5 276.5 417.5 179.5C417.5 179.5 433 173.5 459.5 166.5C486 159.5 496.07 218.497 479.5 251.999C465.622 280.058 422.5 302 422.5 302C423.333 304.334 410.7 304.8 417.5 346C263 447.5 227 365.5 157 357L152.5 304.5C152.5 304.5 107.917 289.514 85 259.5Z" fill="#878787"/>
</svg>
