<?xml version="1.0" encoding="UTF-8"?>
<svg width="41" height="35" viewBox="0 0 41 35" fill="none" xmlns="http://www.w3.org/2000/svg">
<path d="M5.0531 3.69495H35.4586V30.8734H5.0531V3.69495Z" fill="#AA572A"/>
<path d="M1.40433 0.433533H7.48544C7.808 0.433533 8.11735 0.54807 8.34543 0.751948C8.57352 0.955826 8.70166 1.23234 8.70166 1.52067V34.1348H1.40433C1.08177 34.1348 0.772419 34.0203 0.544333 33.8164C0.316248 33.6125 0.18811 33.336 0.18811 33.0477V1.52067C0.18811 1.23234 0.316248 0.955826 0.544333 0.751948C0.772419 0.54807 1.08177 0.433533 1.40433 0.433533V0.433533ZM33.0261 0.433533H39.1072C39.4297 0.433533 39.7391 0.54807 39.9672 0.751948C40.1953 0.955826 40.3234 1.23234 40.3234 1.52067V33.0477C40.3234 33.336 40.1953 33.6125 39.9672 33.8164C39.7391 34.0203 39.4297 34.1348 39.1072 34.1348H31.8099V1.52067C31.8099 1.23234 31.938 0.955826 32.1661 0.751948C32.3942 0.54807 32.7035 0.433533 33.0261 0.433533V0.433533Z" fill="#C2D1DD"/>
<path d="M5.0531 29.7863H35.4586V34.1348H5.0531V29.7863ZM5.0531 15.6535H35.4586V22.1763H5.0531V15.6535Z" fill="#C2D1DD"/>
<path d="M15.9991 12.3921H24.5126C25.1578 12.3921 25.7765 12.6212 26.2326 13.0289C26.6888 13.4367 26.9451 13.9897 26.9451 14.5664V23.2635C26.9451 23.8401 26.6888 24.3932 26.2326 24.8009C25.7765 25.2087 25.1578 25.4377 24.5126 25.4377H15.9991C15.354 25.4377 14.7353 25.2087 14.2791 24.8009C13.8229 24.3932 13.5667 23.8401 13.5667 23.2635V14.5664C13.5667 13.9897 13.8229 13.4367 14.2791 13.0289C14.7353 12.6212 15.354 12.3921 15.9991 12.3921Z" fill="#C2D1DD"/>
<path d="M18.4314 19.4368H22.0801L22.856 21.8796C22.9073 22.0413 22.916 22.2114 22.8814 22.3767C22.8467 22.5419 22.7697 22.6977 22.6563 22.8318C22.5429 22.9659 22.3963 23.0747 22.2279 23.1496C22.0596 23.2245 21.8741 23.2635 21.686 23.2635H18.8255C18.6374 23.2635 18.4519 23.2245 18.2835 23.1496C18.1152 23.0747 17.9685 22.9659 17.8552 22.8318C17.7418 22.6977 17.6647 22.5419 17.6301 22.3767C17.5954 22.2114 17.6041 22.0413 17.6555 21.8796L18.4314 19.4368Z" fill="#92A8BA"/>
<path d="M20.2556 14.5663C21.062 14.5663 21.8354 14.8527 22.4056 15.3624C22.9758 15.8721 23.2962 16.5634 23.2962 17.2842C23.2962 18.005 22.9758 18.6963 22.4056 19.206C21.8354 19.7157 21.062 20.002 20.2556 20.002C19.4492 20.002 18.6759 19.7157 18.1056 19.206C17.5354 18.6963 17.2151 18.005 17.2151 17.2842C17.2151 16.5634 17.5354 15.8721 18.1056 15.3624C18.6759 14.8527 19.4492 14.5663 20.2556 14.5663Z" fill="#92A8BA"/>
</svg> 