<?xml version="1.0" encoding="UTF-8"?>
<svg width="56" height="56" viewBox="0 0 56 56" fill="none" xmlns="http://www.w3.org/2000/svg">
<rect width="56" height="56" rx="8" fill="#E6F7FF"/>
<path d="M26.3612 5.59778C27.2049 5.59778 27.8889 6.2776 27.8889 7.11605V24.6555C27.8889 24.8846 27.7974 25.1043 27.6344 25.2663C27.4715 25.4283 27.2504 25.5194 27.0199 25.5194H25.7028C25.4723 25.5194 25.2511 25.4284 25.0881 25.2664C24.9251 25.1044 24.8335 24.8846 24.8335 24.6555V7.11605C24.8335 6.2776 25.5175 5.59778 26.3612 5.59778Z" fill="#CD7900"/>
<path d="M26.7742 1.1546L28.176 2.5394C28.2261 2.5888 28.2658 2.64756 28.2929 2.71229C28.32 2.77701 28.334 2.84643 28.334 2.91653C28.334 2.98664 28.32 3.05605 28.2929 3.12078C28.2658 3.1855 28.2261 3.24426 28.176 3.29367L26.7742 4.67812C26.674 4.77715 26.5384 4.83273 26.3971 4.83273C26.2558 4.83273 26.1202 4.77715 26.02 4.67812L24.6181 3.29367C24.5681 3.24426 24.5284 3.1855 24.5013 3.12078C24.4742 3.05605 24.4602 2.98664 24.4602 2.91653C24.4602 2.84643 24.4742 2.77701 24.5013 2.71229C24.5284 2.64756 24.5681 2.5888 24.6181 2.5394L26.02 1.1546C26.1202 1.05558 26.2558 1 26.3971 1C26.5384 1 26.674 1.05558 26.7742 1.1546Z" fill="#FFD300"/>
<path d="M36.4612 6.87219H29.774C29.183 6.87219 28.7039 7.34834 28.7039 7.93569V15.9372C28.7039 16.5246 29.183 17.0007 29.774 17.0007H36.4612C37.0522 17.0007 37.5313 16.5246 37.5313 15.9372V7.93569C37.5313 7.34834 37.0522 6.87219 36.4612 6.87219Z" fill="#1899D6"/>
<path d="M35.749 8.07959H43.9301C44.2138 8.07959 44.4859 8.1916 44.6866 8.39098C44.8872 8.59036 44.9999 8.86078 44.9999 9.14275V17.145C44.9999 17.4269 44.8872 17.6973 44.6866 17.8967C44.4859 18.0961 44.2138 18.2081 43.9301 18.2081H35.749C35.4652 18.2081 35.1931 18.0961 34.9925 17.8967C34.7919 17.6973 34.6792 17.4269 34.6792 17.145V9.14275C34.6792 8.86078 34.7919 8.59036 34.9925 8.39098C35.1931 8.1916 35.4652 8.07959 35.749 8.07959Z" fill="#1CB0F6"/>
<path d="M36.461 6.87219H35.7493C35.1583 6.87219 34.6792 7.34834 34.6792 7.93569V15.9372C34.6792 16.5246 35.1583 17.0007 35.7493 17.0007H36.461C37.052 17.0007 37.5311 16.5246 37.5311 15.9372V7.93569C37.5311 7.34834 37.052 6.87219 36.461 6.87219Z" fill="#1CB0F6"/>
<path fill-rule="evenodd" clip-rule="evenodd" d="M38.5696 46.6035C39.0786 46.6361 39.5561 46.86 39.9051 47.2297C40.254 47.5995 40.4482 48.0874 40.4483 48.5943V52.8037C40.4483 53.0657 40.3963 53.3252 40.2954 53.5673C40.1945 53.8094 40.0466 54.0294 39.8602 54.2146C39.6737 54.3999 39.4523 54.5469 39.2087 54.6471C38.9651 54.7474 38.704 54.7989 38.4404 54.7989H14.4085C13.876 54.7989 13.3654 54.5887 12.9889 54.2145C12.6124 53.8403 12.4009 53.3329 12.4009 52.8037V48.5947C12.401 48.075 12.605 47.5758 12.9697 47.2034C13.3343 46.8309 13.8308 46.6145 14.3535 46.6002L15.5086 31.782H14.0079C13.7442 31.782 13.4832 31.7305 13.2395 31.6302C12.9959 31.53 12.7746 31.383 12.5881 31.1977C12.4017 31.0125 12.2538 30.7925 12.1529 30.5504C12.0519 30.3083 12 30.0488 12 29.7868V24.4965C12 24.2345 12.0519 23.975 12.1527 23.7329C12.2536 23.4908 12.4015 23.2708 12.5879 23.0855C12.7743 22.9 23.0056 22.7532 23.2492 22.6529C23.4928 22.5526 23.7539 22.501 24.0176 22.501H28.0162C28.5486 22.5011 29.0591 22.7113 29.4356 23.0855C29.812 23.4596 30.0234 23.9671 30.0234 24.4962V25.842H32.4275V24.4965C32.4275 24.2344 32.4794 23.9749 32.5803 23.7328C32.6812 23.4907 32.8291 23.2707 33.0155 23.0854C33.202 22.9 33.4234 22.7531 33.667 22.6528C33.9106 22.5525 34.1718 22.5009 34.4355 22.501H38.4341C38.9665 22.501 39.4771 22.7112 39.8536 23.0854C40.2301 23.4595 40.4417 23.967 40.4417 24.4962V29.7868C40.4417 30.0488 40.3899 30.3083 40.289 30.5503C40.1881 30.7924 40.0403 31.0123 39.8538 31.1976C39.6674 31.3829 39.4461 31.5299 39.2025 31.6301C38.959 31.7304 38.6979 31.782 38.4343 31.782H37.2498L38.5696 46.6035Z" fill="#FFC800"/>
<path fill-rule="evenodd" clip-rule="evenodd" d="M16.574 23.988H18.0406C18.4101 23.988 18.7098 24.2855 18.7098 24.6531V30.0125C18.7098 30.0999 18.6926 30.1864 18.659 30.2671C18.6253 30.3478 18.5761 30.4212 18.5139 30.483C18.4518 30.5448 18.378 30.5938 18.2968 30.6272C18.2156 30.6607 18.1285 30.6779 18.0406 30.6779H16.574C16.3965 30.6779 16.2263 30.6078 16.1008 30.4831C15.9753 30.3584 15.9048 30.1892 15.9048 30.0128V24.6531C15.9048 24.2855 16.2045 23.988 16.574 23.988Z" fill="#FFDE00"/>
<path d="M26.2246 23.988H24.7583C24.3887 23.988 24.0891 24.2858 24.0891 24.6531V29.4323C24.0891 29.7996 24.3887 30.0973 24.7583 30.0973H26.2246C26.5942 30.0973 26.8938 29.7996 26.8938 29.4323V24.6531C26.8938 24.2858 26.5942 23.988 26.2246 23.988Z" fill="#FFDE00"/>
<path fill-rule="evenodd" clip-rule="evenodd" d="M18.4186 26.5846H26.2522C26.6221 26.5846 26.9214 26.8824 26.9214 27.2497V30.0031C26.9214 30.1795 26.8509 30.3487 26.7254 30.4734C26.5999 30.5981 26.4297 30.6682 26.2522 30.6682H18.4186C18.2411 30.6682 18.0709 30.5981 17.9454 30.4734C17.8199 30.3487 17.7494 30.1795 17.7494 30.0031V27.2497C17.7494 26.8824 18.0491 26.5846 18.4186 26.5846ZM16.7539 47.99H26.2522C26.6221 47.99 26.9214 48.2875 26.9214 48.6547V52.2104C26.9214 52.3868 26.8509 52.556 26.7254 52.6807C26.5999 52.8054 26.4297 52.8755 26.2522 52.8755H16.7539C16.5764 52.8755 16.4062 52.8054 16.2807 52.6807C16.1552 52.556 16.0847 52.3868 16.0847 52.2104V48.6547C16.0847 48.2875 16.3844 47.99 16.7539 47.99ZM19.594 32.3226H26.2596C26.6291 32.3226 26.9288 32.6205 26.9288 32.9877V45.5632C26.9288 45.7396 26.8583 45.9087 26.7328 46.0334C26.6073 46.1582 26.4371 46.2282 26.2596 46.2282H18.5911C18.4987 46.2282 18.4074 46.2093 18.3228 46.1725C18.2381 46.1357 18.1621 46.0819 18.0995 46.0145C18.0368 45.9471 17.9888 45.8675 17.9586 45.7807C17.9284 45.694 17.9166 45.602 17.9239 45.5105L18.9272 32.9354C18.9404 32.7686 19.0164 32.6129 19.14 32.4994C19.2636 32.3858 19.4257 32.3227 19.594 32.3226Z" fill="#FFDE00"/>
</svg> 