<?xml version="1.0" encoding="UTF-8"?>
<svg width="41" height="35" viewBox="0 0 41 35" fill="none" xmlns="http://www.w3.org/2000/svg">
<path d="M5.72717 4.1377H36.1327V31.3161H5.72717V4.1377Z" fill="#AA572A"/>
<path d="M2.07853 0.876282H8.15963C8.48219 0.876282 8.79154 0.990819 9.01963 1.1947C9.24771 1.39857 9.37585 1.67509 9.37585 1.96342V34.5775H2.07853C1.75596 34.5775 1.44661 34.463 1.21853 34.2591C0.990442 34.0553 0.862305 33.7787 0.862305 33.4904V1.96342C0.862305 1.67509 0.990442 1.39857 1.21853 1.1947C1.44661 0.990819 1.75596 0.876282 2.07853 0.876282V0.876282ZM33.7003 0.876282H39.7814C40.1039 0.876282 40.4133 0.990819 40.6414 1.1947C40.8695 1.39857 40.9976 1.67509 40.9976 1.96342V33.4904C40.9976 33.7787 40.8695 34.0553 40.6414 34.2591C40.4133 34.463 40.1039 34.5775 39.7814 34.5775H32.4841V1.96342C32.4841 1.67509 32.6122 1.39857 32.8403 1.1947C33.0684 0.990819 33.3777 0.876282 33.7003 0.876282V0.876282Z" fill="#FFD300"/>
<path d="M5.72717 30.229H36.1327V34.5776H5.72717V30.229ZM5.72717 16.0963H36.1327V22.6191H5.72717V16.0963Z" fill="#FFD300"/>
<path d="M16.673 12.8348H25.1866C25.8317 12.8348 26.4504 13.0639 26.9066 13.4717C27.3628 13.8794 27.619 14.4325 27.619 15.0091V23.7062C27.619 24.2829 27.3628 24.8359 26.9066 25.2437C26.4504 25.6514 25.8317 25.8805 25.1866 25.8805H16.673C16.0279 25.8805 15.4092 25.6514 14.953 25.2437C14.4969 24.8359 14.2406 24.2829 14.2406 23.7062V15.0091C14.2406 14.4325 14.4969 13.8794 14.953 13.4717C15.4092 13.0639 16.0279 12.8348 16.673 12.8348Z" fill="#FFD300"/>
<path d="M19.1056 19.8795H22.7542L23.5302 22.3223C23.5815 22.484 23.5902 22.6542 23.5556 22.8194C23.5209 22.9846 23.4439 23.1404 23.3305 23.2745C23.2171 23.4087 23.0705 23.5174 22.9021 23.5923C22.7338 23.6673 22.5483 23.7062 22.3602 23.7062H19.4996C19.3116 23.7062 19.1261 23.6673 18.9577 23.5923C18.7894 23.5174 18.6427 23.4087 18.5293 23.2745C18.416 23.1404 18.3389 22.9846 18.3043 22.8194C18.2696 22.6542 18.2783 22.484 18.3296 22.3223L19.1056 19.8795Z" fill="#ED9F0E"/>
<path d="M20.93 15.0091C21.7364 15.0091 22.5098 15.2954 23.08 15.8051C23.6502 16.3148 23.9705 17.0061 23.9705 17.7269C23.9705 18.4478 23.6502 19.1391 23.08 19.6487C22.5098 20.1584 21.7364 20.4448 20.93 20.4448C20.1236 20.4448 19.3502 20.1584 18.78 19.6487C18.2097 19.1391 17.8894 18.4478 17.8894 17.7269C17.8894 17.0061 18.2097 16.3148 18.78 15.8051C19.3502 15.2954 20.1236 15.0091 20.93 15.0091Z" fill="#ED9F0E"/>
</svg> 